<svg xmlns="http://www.w3.org/2000/svg" viewBox="0 0 16 16">
  <title>GitHub</title>
  <g>
    <path d="M8,0.2C3.6,0.2,0,3.8,0,8.2c0,3.5,2.3,6.4,5.5,7.5c0.4,0.1,0.5-0.2,0.5-0.4c0-0.2,0-0.8,0-1.5c-2,0.4-2.5-0.5-2.7-1c-0.1-0.3-0.6-1-1-1.2c-0.3-0.2-0.7-0.6,0-0.6c0.6,0,1,0.6,1.1,0.8c0.7,1.2,1.8,0.8,2.2,0.6c0.1-0.5,0.3-0.8,0.6-1c-1.8-0.2-3.7-0.9-3.7-4c0-0.9,0.3-1.6,0.8-2.2C3.8,5.1,3.6,4.3,4,3.2c0,0,0.7-0.2,2.3,0.8c0.7-0.2,1.5-0.3,2.3-0.3c0.8,0,1.6,0.1,2.3,0.3c1.6-1,2.3-0.8,2.3-0.8c0.4,1.1,0.2,1.9,0.1,2.1c0.5,0.6,0.8,1.3,0.8,2.2c0,3.1-1.9,3.8-3.7,4c0.3,0.3,0.6,0.8,0.6,1.6c0,1.2,0,2.1,0,2.4c0,0.2,0.1,0.5,0.5,0.4c3.2-1.1,5.5-4,5.5-7.5C16,3.8,12.4,0.2,8,0.2z"/>
  </g>
</svg>
